<?xml version="1.0" encoding="utf-8"?>
<!-- Svg Vector Icons : http://www.onlinewebfonts.com/icon -->
<!DOCTYPE svg PUBLIC "-//W3C//DTD SVG 1.1//EN" "http://www.w3.org/Graphics/SVG/1.1/DTD/svg11.dtd">
<svg version="1.1" xmlns="http://www.w3.org/2000/svg" xmlns:xlink="http://www.w3.org/1999/xlink" x="0px" y="0px" viewBox="0 0 1000 1000" enable-background="new 0 0 1000 1000" xml:space="preserve">
<metadata> Svg Vector Icons : http://www.onlinewebfonts.com/icon </metadata>

<g><g fill="#F3A425" transform="translate(0.000000,511.000000) scale(0.100000,-0.100000)"><path d="M4660.5,5007.7c-38-4-155.8-18-259.6-30c-828.7-93.9-1673.4-437.3-2376.4-964.5c-235.6-175.8-635-561.2-828.7-800.8C620.7,2505.5,253.3,1646.8,125.4,706.3c-33.9-245.6-33.9-952.5,0-1198.2c121.8-886.6,443.3-1679.4,964.5-2372.4c177.7-235.6,529.2-601.1,774.8-806.8c696.9-583.1,1581.6-966.5,2536.1-1096.3c245.6-33.9,952.6-33.9,1198.2,0c764.8,103.8,1505.7,379.4,2106.8,778.8c1200.2,798.8,1969,2034.9,2168.7,3496.6c33.9,245.6,33.9,952.5,0,1198.2C9770.7,1471.1,9495.1,2212,9095.7,2813c-784.8,1182.2-2004.9,1949-3426.8,2158.7C5475.3,4999.7,4800.3,5023.7,4660.5,5007.7z M5421.3,4440.6c2236.6-223.7,3932-2092.8,3932-4333.4c0-2400.3-1953-4353.3-4353.3-4353.3c-2402.3,0-4353.3,1951-4353.3,4353.3C646.7,2673.3,2875.2,4694.2,5421.3,4440.6z"/><path d="M5904.6,1634.8c-57.9-16-143.8-47.9-189.7-71.9c-133.8-67.9-365.4-249.6-473.3-371.4l-99.8-111.8l-27.9,69.9c-85.9,203.7-301.5,397.4-499.2,449.3c-295.6,75.9-583.1,45.9-810.8-89.9c-69.9-39.9-195.7-141.8-283.6-223.7l-157.7-149.8v191.7c0,255.6-18,277.6-239.6,277.6c-85.9,0-181.7-10-209.7-24l-49.9-22V107.2c0-1220.1,4-1455.8,27.9-1489.7c26-34,53.9-37.9,227.7-37.9c137.8,0,207.7,8,229.6,28c30,24,34,121.8,34,1034.4V648.4l83.9,101.8c123.8,145.8,349.5,333.5,473.3,389.4c89.9,43.9,125.8,49.9,241.6,41.9c201.7-16,329.5-91.8,413.4-247.6c115.8-217.7,125.8-321.5,125.8-1351.9c0-766.8,4-930.6,27.9-964.5c39.9-53.9,335.5-67.9,429.3-20l61.9,34v1018.4V668.3L5435.3,862c107.9,105.8,245.6,221.7,305.5,253.6c93.9,51.9,127.8,59.9,267.6,59.9c141.8,0,171.7-8,269.6-61.9c89.9-49.9,121.8-83.9,173.8-179.7c115.8-217.7,125.8-321.5,125.8-1351.9c0-766.8,4-930.6,27.9-964.5c39.9-53.9,335.5-67.9,429.4-20c63.9,34,81.9,71.9,33.9,71.9c-26,0-29.9,155.8-35.9,1094.3l-8,1092.3l-51.9,153.8c-69.9,209.7-133.8,313.5-269.6,433.3C6493.7,1630.8,6174.2,1706.7,5904.6,1634.8z"/></g></g>

</svg>