<?xml version="1.0" standalone="no"?>
<!DOCTYPE svg PUBLIC "-//W3C//DTD SVG 20010904//EN"
 "http://www.w3.org/TR/2001/REC-SVG-20010904/DTD/svg10.dtd">
<svg version="1.0" xmlns="http://www.w3.org/2000/svg"
 width="700.000000pt" height="700.000000pt" viewBox="0 0 700.000000 700.000000"
 preserveAspectRatio="xMidYMid meet">
<metadata>
Created by potrace 1.14, written by Peter Selinger 2001-2017
</metadata>
<g transform="translate(0.000000,700.000000) scale(0.100000,-0.100000)"
fill="#000000" stroke="none">
<path d="M3368 6935 c-2 -1 -48 -5 -103 -9 -55 -3 -109 -7 -120 -10 -11 -2
-45 -7 -75 -10 -30 -4 -66 -8 -80 -11 -14 -2 -56 -9 -95 -15 -366 -58 -834
-237 -1205 -463 -81 -49 -238 -157 -305 -210 -212 -166 -527 -492 -665 -687
-209 -298 -354 -579 -466 -905 -41 -118 -96 -312 -108 -375 -2 -14 -9 -45 -15
-70 -5 -25 -13 -61 -16 -80 -3 -19 -10 -60 -15 -90 -20 -122 -25 -208 -25
-500 0 -347 10 -464 54 -660 5 -25 12 -56 14 -70 12 -61 60 -235 95 -345 117
-360 303 -714 533 -1017 109 -142 376 -421 514 -536 44 -37 82 -69 85 -72 3
-3 52 -40 110 -82 402 -290 889 -499 1390 -597 90 -17 110 -21 260 -41 71 -9
724 -6 780 4 19 3 55 9 80 11 25 3 52 8 61 11 10 2 30 6 45 9 16 2 72 13 124
25 375 83 747 231 1061 421 87 52 296 194 309 209 3 3 28 23 55 45 607 478
1051 1200 1215 1975 34 158 48 241 58 340 9 99 9 634 -1 735 -7 69 -19 148
-43 280 -2 17 -10 48 -16 70 -5 22 -12 48 -14 58 -2 10 -5 26 -8 35 -3 9 -7
28 -10 42 -2 14 -20 78 -40 142 -98 320 -234 616 -405 878 -57 88 -224 312
-272 365 -15 16 -37 41 -49 55 -97 113 -294 299 -420 395 -36 28 -70 55 -77
61 -7 7 -65 48 -130 91 -189 128 -421 254 -603 328 -36 14 -74 30 -85 35 -71
34 -466 150 -563 166 -15 2 -47 9 -72 14 -128 27 -244 37 -535 46 -93 3 -178
6 -187 8 -9 2 -18 3 -20 1z m382 -399 c57 -4 107 -9 110 -11 3 -2 30 -6 60
-10 252 -30 578 -125 842 -245 336 -152 620 -350 889 -619 250 -250 421 -486
572 -787 89 -177 186 -427 218 -564 34 -146 51 -219 55 -240 2 -14 6 -36 9
-50 3 -14 7 -47 10 -75 4 -27 8 -57 10 -65 10 -39 19 -232 19 -385 0 -216 -10
-330 -45 -520 -62 -338 -180 -669 -338 -947 -11 -21 -30 -54 -41 -73 -106
-187 -287 -420 -470 -603 -165 -165 -419 -364 -580 -454 -25 -14 -69 -40 -99
-57 -253 -150 -708 -306 -1011 -345 -25 -3 -54 -8 -66 -10 -137 -27 -627 -28
-784 -1 -14 2 -70 11 -125 20 -55 10 -145 28 -200 42 -55 14 -107 26 -116 28
-30 6 -223 72 -299 103 -324 130 -665 343 -908 567 -361 333 -597 669 -787
1120 -84 200 -160 483 -190 705 -3 25 -8 52 -10 60 -24 87 -24 648 0 740 2 8
7 42 10 75 10 95 50 280 90 414 205 700 651 1300 1265 1702 223 147 506 280
755 358 129 40 327 86 435 101 47 6 96 14 110 16 14 2 66 7 115 10 50 3 91 7
92 8 5 5 302 -2 403 -8z"/>
<path d="M4152 4570 c-119 -28 -221 -84 -356 -195 -58 -47 -176 -166 -176
-177 0 -19 -28 -6 -34 15 -9 36 -78 137 -128 188 -83 84 -193 142 -298 157
-60 9 -244 8 -296 -1 -60 -11 -158 -51 -218 -89 -45 -29 -174 -134 -216 -178
-9 -8 -29 -27 -46 -42 l-30 -28 -1 130 c-3 187 -11 196 -183 193 -58 0 -109
-7 -131 -16 l-35 -14 2 -979 c1 -538 4 -1001 8 -1028 9 -69 21 -75 152 -76
144 0 173 6 186 39 9 21 19 751 18 1347 l0 70 85 92 c97 103 221 201 310 244
51 25 71 28 135 27 162 -4 262 -65 329 -198 65 -129 72 -213 76 -960 1 -307 6
-576 10 -599 9 -55 40 -67 175 -67 88 0 111 3 140 21 l35 20 2 714 2 715 97
94 c133 129 242 215 300 237 34 13 75 18 144 18 87 0 102 -3 162 -32 97 -46
155 -123 192 -252 33 -116 37 -206 41 -881 1 -300 6 -564 10 -586 5 -34 12
-44 38 -55 43 -18 221 -17 265 1 37 16 63 51 37 51 -8 0 -15 6 -16 13 -1 6 -3
26 -4 42 -4 35 -13 735 -15 1174 l-2 304 -35 100 c-50 146 -78 193 -162 277
-156 155 -365 218 -569 170z"/>
</g>
</svg>
